# xmcd
#
# Track frame offsets: 
#        150
#        21946
#        41548
#        60812
#        78548
#        101970
#        124916
#        152903
#        171564
#        196238
#
# Disc length: 2879 seconds
#
# Revision: 2
# Processed by: cddbd v1.5.2PL0 Copyright (c) Steve Scherf et al.
# Submitted via: ExactAudioCopy v0.99pb5
#
DISCID=840b3d0a
DTITLE=Jorn - Starfire
DYEAR=2000
DGENRE=Heavy Metal
TTITLE0=Starfire
TTITLE1=Edge Of The Blade
TTITLE2=Break It Up
TTITLE3=Forever Yours
TTITLE4=The Day The Earth Caught Fire
TTITLE5=Gate Of Tears
TTITLE6=Burn
TTITLE7=End Come Easy
TTITLE8=Just The Same
TTITLE9=Abyss Of Evil
EXTD=YEAR: 2000
EXTT0=
EXTT1=
EXTT2=
EXTT3=
EXTT4=
EXTT5=
EXTT6=
EXTT7=
EXTT8=
EXTT9=
PLAYORDER=
